<svg width="24" height="24" viewBox="0 0 24 24" fill="none" xmlns="http://www.w3.org/2000/svg">
<path fill-rule="evenodd" clip-rule="evenodd" d="M2 12C2 17.525 6.475 22 12 22C17.525 22 22 17.525 22 12C22 6.475 17.525 2 12 2C6.475 2 2 6.475 2 12ZM16.1125 8.6125C16.3375 8.3875 16.65 8.25 17 8.25C17.6875 8.25 18.25 8.8125 18.25 9.5C18.25 9.85 18.1125 10.1625 17.8875 10.3875L11.6375 16.6375C11.4125 16.8625 11.1 17 10.75 17C10.4 17 10.0875 16.8625 9.8625 16.6375L6.1125 12.8875C5.8875 12.6625 5.75 12.35 5.75 12C5.75 11.3125 6.3125 10.75 7 10.75C7.35 10.75 7.6625 10.8875 7.8875 11.1125L10.75 13.9875L16.1125 8.6125Z" fill="#0FAB0B"/>
</svg>
