<svg width="22" height="22" viewBox="0 0 22 22" fill="none" xmlns="http://www.w3.org/2000/svg">
<path fill-rule="evenodd" clip-rule="evenodd" d="M12.2941 4.96078C12.2941 4.24606 11.7147 3.66667 11 3.66667C10.2852 3.66667 9.70585 4.24606 9.70585 4.96078V9.70588H4.96074C4.24602 9.70588 3.66663 10.2853 3.66663 11C3.66663 11.7147 4.24602 12.2941 4.96074 12.2941H9.70585V17.0392C9.70585 17.7539 10.2852 18.3333 11 18.3333C11.7147 18.3333 12.2941 17.7539 12.2941 17.0392V12.2941H17.0392C17.7539 12.2941 18.3333 11.7147 18.3333 11C18.3333 10.2853 17.7539 9.70588 17.0392 9.70588H12.2941V4.96078Z" fill="white"/>
</svg>
