<svg width="24" height="24" viewBox="0 0 24 24" fill="none" xmlns="http://www.w3.org/2000/svg">
<path fill-rule="evenodd" clip-rule="evenodd" d="M2 9.83745C2 5.50882 5.50916 2 9.83745 2C14.1661 2 17.6749 5.50884 17.6749 9.83745C17.6749 11.038 17.4043 12.1776 16.9203 13.1966L15.6109 12.5746C16.0046 11.7458 16.2253 10.8183 16.2253 9.83745C16.2253 6.30943 13.3655 3.44959 9.83745 3.44959C6.3097 3.44959 3.44959 6.30945 3.44959 9.83745C3.44959 13.3651 6.30968 16.225 9.83745 16.225C11.5781 16.225 13.1551 15.5298 14.3078 14.4001C14.539 14.1735 14.8924 14.1277 15.1737 14.2878L15.4119 14.4234C15.4682 14.4555 15.5199 14.4949 15.5657 14.5407L16.3509 15.3256C16.9644 15.0997 17.6805 15.2327 18.1733 15.7257C18.1733 15.7258 18.1732 15.7256 18.1733 15.7257L21.4932 19.0453C22.1688 19.7215 22.169 20.8169 21.4934 21.493C20.8174 22.169 19.7219 22.1689 19.0459 21.4934L15.9633 18.4105L16.9884 17.3856L20.0705 20.468C20.1807 20.5781 20.3585 20.5778 20.4682 20.4682C20.578 20.3581 20.5779 20.1802 20.468 20.0702C20.468 20.0702 20.468 20.0702 20.468 20.0702L17.1483 16.7508C17.0392 16.6416 16.8612 16.6411 16.7515 16.7509C16.6156 16.8869 16.4313 16.9633 16.239 16.9633C16.0468 16.9634 15.8624 16.887 15.7264 16.7511L14.8431 15.868C13.4858 16.9958 11.7402 17.6746 9.83745 17.6746C5.50918 17.6746 2 14.1658 2 9.83745Z" fill="#DF1A09"/>
</svg>
