<svg width="24" height="24" viewBox="0 0 24 24" fill="none" xmlns="http://www.w3.org/2000/svg">
<path d="M12 2C6.50742 2 2 6.50742 2 12C2 17.4926 6.50742 22 12 22C17.4926 22 22 17.4926 22 12C22 6.50742 17.4926 2 12 2ZM12 19.0312C11.3528 19.0312 10.8281 18.5066 10.8281 17.8594C10.8281 17.2121 11.3528 16.6875 12 16.6875C12.6472 16.6875 13.1719 17.2121 13.1719 17.8594C13.1719 18.5066 12.6472 19.0312 12 19.0312ZM14.0765 11.3202C13.7389 11.5686 13.1719 12.0984 13.1719 12.8634V13.1719C13.1719 13.819 12.6471 14.3438 12 14.3438C11.3529 14.3438 10.8281 13.819 10.8281 13.1719V12.8634C10.8281 11.5502 11.5068 10.2988 12.6901 9.43078C12.9962 9.20594 13.1719 8.86145 13.1719 8.48438C13.1719 7.83836 12.646 7.3125 12 7.3125C11.354 7.3125 10.8281 7.83836 10.8281 8.48438C10.8281 9.13152 10.3034 9.65625 9.65625 9.65625C9.0091 9.65625 8.48438 9.13152 8.48438 8.48438C8.48438 6.54574 10.0614 4.96875 12 4.96875C13.9386 4.96875 15.5156 6.54574 15.5156 8.48438C15.5156 9.59902 14.9777 10.6593 14.0765 11.3202Z" fill="#555869"/>
</svg>
