<svg width="24" height="24" viewBox="0 0 24 24" fill="none" xmlns="http://www.w3.org/2000/svg">
<path fill-rule="evenodd" clip-rule="evenodd" d="M6.3157 7.6843C6.3157 4.54488 8.86057 2 12 2C15.1394 2 17.6843 4.54488 17.6843 7.6843C17.6843 8.58422 17.4737 9.43509 17.1009 10.191C20.0296 11.9323 22 15.1218 22 18.7818C22 20.5592 20.5592 22 18.7818 22H7.6843V20.4959H18.7818C19.7285 20.4959 20.4959 19.7285 20.4959 18.7818C20.4959 15.4323 18.552 12.5414 15.7288 11.1573C15.5322 11.061 15.3874 10.8838 15.3321 10.672C15.2768 10.4602 15.3166 10.2348 15.4409 10.0547C15.9067 9.38006 16.1802 8.56514 16.1802 7.6843C16.1802 5.37559 14.3087 3.50415 12 3.50415C9.69129 3.50415 7.81985 5.37559 7.81985 7.6843C7.81985 8.56514 8.09327 9.38006 8.55907 10.0547C8.68343 10.2348 8.72315 10.4602 8.66787 10.672C8.61258 10.8838 8.46778 11.061 8.27124 11.1573C5.448 12.5414 3.50415 15.4323 3.50415 18.7818V21.8645H2V18.7818C2 15.1218 3.97044 11.9323 6.89913 10.191C6.52628 9.43509 6.3157 8.58422 6.3157 7.6843Z" fill="#DF1A09"/>
</svg>
